<svg xmlns="http://www.w3.org/2000/svg" viewBox="0 0 392 443" role="img" aria-label="ai.doo mark">
  <defs>
    <linearGradient id="head" x1="0" y1="0" x2="1" y2="1">
      <stop offset="0%" stop-color="#f5f5f5"/>
      <stop offset="55%" stop-color="#e8e8e8"/>
      <stop offset="100%" stop-color="#d8d8d8"/>
    </linearGradient>
    <linearGradient id="brain" x1="0" y1="0" x2="1" y2="1">
      <stop offset="0%" stop-color="#4db8ff"/>
      <stop offset="55%" stop-color="#3b9dd9"/>
      <stop offset="100%" stop-color="#2a8bc9"/>
    </linearGradient>
  </defs>

  <!-- Head shape - SAME as original, just new gradient colors -->
  <path d="M 174.00 43.50 C 164.42 43.92 155.50 46.00 152.50 47.00 C 149.50 48.00 157.25 49.42 156.00 49.50 C 154.75 49.58 149.33 47.00 145.00 47.50 C 140.67 48.00 132.83 52.00 130.00 52.50 C 127.17 53.00 128.83 50.17 128.00 50.50 C 127.17 50.83 128.50 52.83 125.00 54.50 C 121.50 56.17 113.50 57.00 107.00 60.50 C 100.50 64.00 92.92 69.58 86.00 75.50 C 79.08 81.42 71.08 89.58 65.50 96.00 C 59.92 102.42 56.00 105.50 52.50 114.00 C 49.00 122.50 46.17 141.67 44.50 147.00 C 42.83 152.33 42.83 138.50 42.50 146.00 C 42.17 153.50 40.50 177.67 42.50 192.00 C 44.50 206.33 48.83 218.50 54.50 232.00 C 60.17 245.50 71.50 262.17 76.50 273.00 C 81.50 283.83 82.83 285.50 84.50 297.00 C 86.17 308.50 87.33 329.50 86.50 342.00 C 85.67 354.50 76.42 366.25 79.50 372.00 C 82.58 377.75 98.92 375.92 105.00 376.50 C 111.08 377.08 114.17 375.17 116.00 375.50 C 117.83 375.83 107.17 376.50 116.00 378.50 C 124.83 380.50 158.67 386.33 169.00 387.50 C 179.33 388.67 176.83 385.33 178.00 385.50 C 179.17 385.67 174.33 387.50 176.00 388.50 C 177.67 389.50 184.83 391.33 188.00 391.50 C 191.17 391.67 194.00 389.33 195.00 389.50 C 196.00 389.67 192.50 391.50 194.00 392.50 C 195.50 393.50 201.33 395.33 204.00 395.50 C 206.67 395.67 209.17 393.33 210.00 393.50 C 210.83 393.67 208.67 396.33 209.00 396.50 C 209.33 396.67 211.33 394.17 212.00 394.50 C 212.67 394.83 211.50 397.50 213.00 398.50 C 214.50 399.50 219.75 406.08 221.00 400.50 C 222.25 394.92 219.92 371.25 220.50 365.00 C 221.08 358.75 223.50 365.50 224.50 363.00 C 225.50 360.50 225.50 353.17 226.50 350.00 C 227.50 346.83 228.75 345.58 230.50 344.00 C 232.25 342.42 231.42 340.42 237.00 340.50 C 242.58 340.58 258.83 344.50 264.00 344.50 C 269.17 344.50 264.83 341.17 268.00 340.50 C 271.17 339.83 282.75 340.25 283.00 340.50 C 283.25 340.75 269.33 341.50 269.50 342.00 C 269.67 342.50 278.08 344.42 284.00 343.50 C 289.92 342.58 300.25 340.25 305.00 336.50 C 309.75 332.75 311.58 326.08 312.50 321.00 C 313.42 315.92 309.50 311.00 310.50 306.00 C 311.50 301.00 318.00 295.33 318.50 291.00 C 319.00 286.67 313.42 281.75 313.50 280.00 C 313.58 278.25 317.50 281.33 319.00 280.50 C 320.50 279.67 321.92 279.08 322.50 275.00 C 323.08 270.92 319.75 260.08 322.50 256.00 C 325.25 251.92 336.08 251.08 339.00 250.50 C 341.92 249.92 338.25 253.58 340.00 252.50 C 341.75 251.42 347.92 246.42 349.50 244.00 C 351.08 241.58 354.00 246.50 349.50 238.00 C 345.00 229.50 327.33 204.00 322.50 193.00 C 317.67 182.00 320.33 179.67 320.50 172.00 C 320.67 164.33 323.50 155.17 323.50 147.00 C 323.50 138.83 322.33 130.17 320.50 123.00 C 318.67 115.83 315.67 109.67 312.50 104.00 C 309.33 98.33 305.58 93.75 301.50 89.00 C 297.42 84.25 292.75 79.25 288.00 75.50 C 283.25 71.75 275.67 68.67 273.00 66.50 C 270.33 64.33 272.33 62.83 272.00 62.50 C 271.67 62.17 275.33 66.17 271.00 64.50 C 266.67 62.83 256.17 55.83 246.00 52.50 C 235.83 49.17 222.00 46.00 210.00 44.50 C 198.00 43.00 183.58 43.08 174.00 43.50 Z" fill="url(#head)"/>

  <!-- Brain shape - SAME as original, just new gradient colors -->
  <path d="M 186.00 69.50 C 176.50 70.17 161.50 71.67 151.00 74.50 C 140.50 77.33 129.83 83.00 123.00 86.50 C 116.17 90.00 114.42 91.75 110.00 95.50 C 105.58 99.25 100.92 103.08 96.50 109.00 C 92.08 114.92 86.83 123.33 83.50 131.00 C 80.17 138.67 77.67 147.33 76.50 155.00 C 75.33 162.67 76.00 170.83 76.50 177.00 C 77.00 183.17 76.83 185.50 79.50 192.00 C 82.17 198.50 87.58 209.92 92.50 216.00 C 97.42 222.08 104.25 225.92 109.00 228.50 C 113.75 231.08 115.33 231.33 121.00 231.50 C 126.67 231.67 137.33 231.00 143.00 229.50 C 148.67 228.00 147.50 229.00 155.00 222.50 C 162.50 216.00 180.67 196.67 188.00 190.50 C 195.33 184.33 191.83 186.83 199.00 185.50 C 206.17 184.17 222.83 183.83 231.00 182.50 C 239.17 181.17 242.25 180.75 248.00 177.50 C 253.75 174.25 261.58 167.08 265.50 163.00 C 269.42 158.92 269.83 157.17 271.50 153.00 C 273.17 148.83 275.00 143.67 275.50 138.00 C 276.00 132.33 276.17 125.33 274.50 119.00 C 272.83 112.67 268.92 105.08 265.50 100.00 C 262.08 94.92 260.58 92.75 254.00 88.50 C 247.42 84.25 233.67 77.50 226.00 74.50 C 218.33 71.50 214.67 71.33 208.00 70.50 C 201.33 69.67 195.50 68.83 186.00 69.50 Z" fill="url(#brain)"/>
</svg>
